<?xml version="1.0" encoding="UTF-8"?>
<svg id="Layer_1" data-name="Layer 1" xmlns="http://www.w3.org/2000/svg" viewBox="0 0 591.29 719.24">
  <defs>
    <style>
      .cls-1 {
        fill: #fff;
      }
    </style>
  </defs>
  <g id="mB5uxY">
    <path class="cls-1" d="M590.73,437.59c-.16-6.79,2.4-13.39-2.28-19.23-1.9-2.37-4.12-4.74-6.72-6.37-.92-.58-1.82-.94-2.73-1.17-3.76-4.5-10.17-6.88-16.08-5.5-1.17,.27-2.19,.71-3.17,1.17-.78-.26-1.56-.54-2.34-.82-1.25-1.12-2.49-2.25-3.71-3.4-4.87-9.6-13.49-13.68-22.98-16.81-.63-2.73-1.17-5.59-1.42-8.21-.48-4.98,.29-8.91-3.6-12.89-2.77-2.83-6.22-3.32-9.44-5.17-3.33-1.9-5.29-5.42-6.65-9.23-1.08-4.99-1.63-10.21-2.35-15.19-.68-4.73-.18-9.74-.15-14.7,1.55-5.44,3.43-10.78,5.84-15.97,3.17-6.83,5.4-14.02,6.06-21.58,.49-5.59,.67-11.06-2.1-16.41-3.23-6.24-3.54-13.22-3.63-20.14-.01-.82,.34-1.66,.21-2.44-1.06-6.76,.75-13.28,1.59-19.89,.35-2.8,1.92-5.16,2.94-7.71,1.65-4.12,3.36-8.45,1.73-13.11-.5-1.43-.84-2.93-1.42-4.32-.78-1.87-2.25-3.62-2.48-5.53-.34-2.91,0-5.93,.28-8.88,.55-6.05,1.24-12.09,1.87-18.13-.19-.02-.38-.04-.57-.06,0-4.39,.06-8.78-.08-13.17-2.3-6.25-4.44-12.57-7.13-18.65-1.3-2.95-3.5-5.51-5.36-8.2-.68-.99-1.73-1.73-2.33-2.76-5.65-9.76-13.03-18.93-18.37-22.51s-6.94-9.8-11.07-11.72c-6.73-3.12-13.49-6.19-20.19-9.38-4.78-2.27-8.58-5.55-11.65-10.02-6.12-8.9-13.61-16.41-24.09-20.19-5.84-2.1-11.78-3.94-17.59-6.13-1.42-.53-2.8-1.15-4.14-1.85-4.47-2.31-8.98-4.88-13.08-7.93-2.68-2-5.76-3.83-7.63-6.47-6.85-9.63-16.11-16.21-26.19-21.83-7.38-4.11-22.46-2.2-28.06,4.65-.94,1.14-3.02,1.86-4.58,1.88-6.52,.08-12.47-1.84-17.8-5.74-3.05-2.23-6.41-4.05-9.71-5.89-2.69-.02-5.38,.35-8.05,.76-4.63,.71-9.29,1.3-13.87,2.25-3.38,.7-6.69,1.81-9.96,2.91-6.93,2.33-12.75,6.24-17.26,12.12-2.34,3.06-4.64,6.38-7.67,8.63-9.87,7.32-20.53,12.71-33.37,12.8-10.03,.07-18.58,3.44-25.27,11.74-11.01,13.66-25.59,23.48-39.87,33.37-4.35,3.01-8.29,6.57-11.74,10.58-8.73,10.17-17.86,20.08-21.87,33.45-1.63,5.44-3.37,10.9-6.14,15.85-2.89,5.17-4.15,10.5-4.04,16.16,.15,7.46-3.2,16.69-3.03,24.16,.19,8.49-.51,15.13-3.01,23.25-2.68,8.71,.37,17.16,3.17,25.6,1.24,3.75,2.65,7.42,2.33,11.54-.12,1.49,.58,3.05,.91,4.58,.57,2.69,.63,5.19-.78,7.84-5.66,10.72-7.46,22.22-5.31,34.08,1.19,6.58,4.22,12.82,5.81,19.33,.3,1.23,.6,3.28,.68,4.55,.23,3.97,.05,7.99,.63,11.9,1.13,7.65,1.93,15.14-2.02,22.29-.3,.55-.4,1.28-.38,1.92,.06,2.32-1.16,3.46-3.19,4.44-5.26,2.53-10.36,5.53-15.01,8.99-1.6,4.08-1.96,8.5-3.02,12.75-.99,3.97-3.1,7.03-7.05,8.67-1.51,.63-2.99,1.44-4.32,2.41-3.69,2.69-7.79,3.42-12.21,2.93-4.22-.47-7.53,1.27-10.33,4.26-1.99,2.12-3.94,4.29-6.15,6.18-4.08,.76-8.23,1.08-12.35,1.66C8.01,406.19,.15,417.87,0,425.09c-.1,4.89,1.27,9.17,4.77,12.57,3.31,3.22,5.97,6.67,5.95,11.59,2.95,7.66,6.06,15.22,11.96,21.2,4.01,4.07,6.79,8.95,8.85,14.2,2.97,7.56,5.09,15.45,8.35,22.9,.48,1.09,1.61,2.65,2.48,3.46,9.24,8.63,18.52,17.07,30.09,22.66,5.87,2.84,11.01,7.16,13.47,13.63,2.63,6.91,7.65,11.48,13.61,15.52,5.86,3.98,11.25,8.64,16.84,13.02,2.47,3.41,4.74,6.97,7.24,10.36,2.96,4.01,4.89,8.33,5.15,13.39,.35,7.07,.74,14.12,2.41,21.09,.89,3.7,.78,7.67,.84,11.53,.05,2.96-.22,5.94-.53,8.89-.67,6.3,2.1,11.76,4.39,17.24,1.68,4,5.36,6.38,8.98,8.62,3.74,2.31,8.06,3.81,10.03,8.63,3.85,3.75,8.28,7.35,13.21,9.57,3.68,1.65,8.59,5.79,11.11,8.95,8.38,10.53,19.24,17.06,31.88,20.54,6.48,1.78,13.02,2.54,19.66-.12,3.16-1.27,6.74-1.46,10.13-2.18,1.28-.27,2.74-.36,3.76-1.06,3.95-2.69,7.8-.55,12.18,.54,6.48,.15,12.96-.27,19.44-.32,4.18-.03,7.75-1.71,11.39-3.52,3.07-1.52,6.3-3.07,9.63-3.65,3.86-.68,7.92-.61,11.84-.29,2.43,.2,4.82,1.35,7.16,2.26,3.43,1.33,6.69,3.21,10.21,4.17,5.72,1.55,11.59,2.56,17.4,3.76,12.99,2.67,25.87,6.14,39.39,4.67,8.04-.88,16.09-1.39,23.85-3.99,4.84-1.62,8.78-4.11,11.14-8.75,3.87-7.62,10-12.78,17.64-16.32,1.19-.55,2.28-1.29,3.47-1.85,2.86-1.34,5.32-3.3,7.59-5.5,2.29-2.23,5.33-3.78,8.26-5.18,2.38-1.14,4.01-2.75,5.12-5.07,.96-2,2.16-3.88,3.04-5.91,.76-1.75,1.78-3.66,1.69-5.45-.25-4.82-1.03-9.61-1.6-14.42-.37-3.09-.33-6.27-1.98-9.06,7.25-7.85,9.49-16.8,7.89-26.75-1.28-7.95-1.16-15.75,3.17-23.03,5.96-10.01,11.62-20.19,15.65-31.22,6.52-1.77,11.17-5.96,15.99-10.05,1.28-1.09,2.84-1.99,4.42-2.56,2.93-1.05,6.15-1.43,8.93-2.75,5.42-2.58,10.74-5.43,15.87-8.54,4.22-2.56,8.41-5.39,10.08-10.58,3.76-4.3,7.58-8.56,11.33-12.88,1.86-2.92,3.96-5.68,5.81-8.61,.95-1.49,2.03-3,2.48-4.66,.59-2.18,5.88-10.2,4.89-13.89,4.67-9.42,8.55-19.32,16.18-26.96,.89-.89,1.1-2.46,1.65-3.7,1.27-2.84,2.23-5.89,3.94-8.44,1.21-1.8,1.61-3.25,.93-5.16,0,0,0,0,0,0Zm-69,13.29c-7.3,.92-11.79,6.9-15.77,13.96-.46,.81-8.35,6.48-8.19,9.74,.16,3.2,.44,6.5-1.91,9.18-1.06,1.21-2.18,2.39-3.43,3.41-.81,.66-1.86,1.06-2.85,1.46-8.75,3.53-13.43,10.78-16.54,19.04-.93,2.47-.33,5.51-.19,8.29-.63,0-1.27,0-1.89,.05-.74,.06-1.48,0-2.21,.14-.36,.07-.79,.28-1.11,.11-.23-.12-.41-.33-.62-.49,0,0,0,0,0,0,0,0,0,0,0,0-.04-.03-.07-.06-.1-.08-.37-.21-.78,.12-.78,.46-.11-.06-.22-.12-.27-.16-.41-.37-.97,.06-.86,.49-.21-.08-.4-.18-.51-.28-.36-.31-.82-.03-.88,.32-.18-.08-.37-.16-.54-.25-.36-.19-.69-.36-1.06-.54-.43-.34-2.56-1.1-1.13,2.19,.47,.81,1.04,1.67,1.66,2.37,.65,.73,1.32,1.34,2.13,1.89,.18,.12,.35,.23,.52,.33,.24,1.32-.68,2-2.69,2.49-.49,.12-.95,.17-1.39,.19-.91-.67-1.86-1.31-2.92-1.57-.07-.05-.14-.09-.21-.12-.11-.23-.2-.47-.32-.7-.24-.46-.87-.24-.95,.21-.15-.16-.31-.32-.42-.44-.32-.36-.83-.06-.87,.33-.09-.1-.18-.2-.26-.3-.09-.14-.2-.26-.34-.39-.3-.28-.69-.11-.83,.16-.21-.11-.4-.25-.59-.4-.42-.36-.87-.7-1.25-1.09-3.52-3.68-3,.49-2.83,1.35,.3,1.54,1.25,2.71,1.99,4.05,.11,.2,.23,.38,.36,.56,0,.02,.01,.03,.02,.05,.5,1.19,1.22,2.3,1.73,3.48,.17,.4,.37,.76,.59,1.12-.25,.42-.69,.78-1.31,1.08-.2,0-.4,0-.58-.02-.37-.06-.64-.14-1.03-.09-.19,.03-.32,.2-.36,.38-.26,.03-.52,.07-.79,.06-.49,0-.97-.07-1.46-.1-.35-.02-.54,.32-.49,.61-.26,.04-.52,.07-.78,.1-.1-.06-.21-.12-.32-.18-.41-.25-.81-.49-1.26-.66-.52-.19-.82,.51-.5,.86,0,0,.02,.01,.02,.02-.09,0-.18-.02-.28-.03-.05-.03-.11-.06-.16-.08-.32-.26-.64-.51-.96-.76-.33-.25-.87-.04-.9,.31-.07-.02-.14-.04-.21-.06-.01,0-.02,0-.04-.01-.33-.23-.65-.47-.94-.73-.39-.34-.83-.61-1.19-.97-.19-.19-.35-.29-.58-.41-.25-.12-.46-.3-.72-.41-.38-.16-.82,.09-.76,.58,.57,4.39,2.51,7.27,3.11,8.01,.36,.45,.7,.87,1.02,1.35,.33,.5,.77,.92,1.19,1.35,.41,.43,.82,.87,1.27,1.26,.43,.38,.93,.65,1.35,1.04,.43,.4,.87,.83,1.38,1.15-.09,.06-2.24-.28-2.74-.39-1.04-.23-2.13-.17-3.19-.17-1.11,0-2.23,0-3.34,0-.96,0-1.93,.05-2.88,.18-.47,.07-4.67,.47-5.52,.8-.92,.36-2.72,0-2.58,1.04,.28,2.06,2.72,3.21,2.83,3.24,.51,.13,1.05,.11,1.58,.2-.05,.04-.1,.08-.12,.09-.34,.27-.05,.64,.26,.77,.36,.15,2.02,.43,2.01,.44-.21,.24-.2,.64,.1,.81,.24,.13,.4,.14,.66,.16,.33,.03,.61,.14,.9,.29-.07,.06-.14,.13-.16,.15-.21,.24-.2,.64,.1,.81,.3,.16,.53,.06,.84,.1,.49,.06,.62,.68,.72,1.11,.08,.32,.48,.48,.76,.31,.35-.21,.72-.35,1.13-.38,.07,0,.45,.17,.59,.25,.61,.36,2.11,1.27,2.25,1.38,.59,1.31,.94,2.74,1.14,4.24-3.89,1.25-8.57,.87-12.26,4.42-.13,.06-.5,.5-.59,.61,.14,.08,.56,.35,.64,.42-.19,.27-.14,.71,.26,.81,.21,.05,.41,.17,.62,.26-.25,.27-.22,.77,.2,.85,.36,.08,1.14,.19,1.15,.19-.44,.46-.1,.56,.14,.73,.52,.38,1.12,.42,1.14,.44-.1,.3-.34,.51,.49,.71,.5,.12,.99,.22,1.49,.34,.22,.05,.45,.11,.66,.19-2.42,1.59-5.08,1.39-7.63,1.28-2.54-.11-5.06-.81-7.6-.98-.06,0-.11,0-.17,0-.55-.06-1.09-.17-1.64-.32-.79-.21-1.59-.41-2.38-.61-.78-.2-1.55-.45-2.33-.64-.5-.12-1.05-.27-1.56-.28-.49,0-.94,.19-1.13,.67-.19,.47-.05,.94,.21,1.34,.2,.56,.65,1.06,.97,1.53,.27,.4,.64,.86,1.07,1.18,.13,.2,.29,.41,.51,.62,1.52,1.46,3.29,2.75,5.15,3.76,2.31,1.25,4.85,2.08,7.23,3.2,1.08,.51,3.51,1.31,3.51,1.31l-2.23,5.97c.08-.03-.6-.17-1.59-.32-.46-.34-.76-.92-1.38-.95-.22-.01-.4,.14-.48,.34-.48-.23-.97-.46-1.44-.74-.29-.17-.64-.3-.96-.14-.29,.14-.24,.35-.36,.6,0,.05,0,.09,0,.14-.03-.19-.11-.35-.24-.48-.1-.13-.23-.25-.37-.33-.27-.15-.58-.16-.85-.04-.3,.13-.42,.39-.62,.59-.35-.13-.67-.2-1-.44-.33-.24-.63-.42-1.05-.42-.3,0-.64,.09-.81,.36-.07,.1-.09,.24-.1,.36,0,.06,0,.12,0,.18-.03-.02-.08-.02-.16,0-.62-.36-1.28-.89-2.05-.62-.2,.07-.34,.22-.43,.41-1.03-.27-2.26-.69-4.5-1.38-.26-.08-.79,.03-1.05,.19-.52,.33,2.55,3.54,3.06,4.06,1.25,1.28,2.72,2.37,4.19,3.4,1.63,1.14,3.35,2.15,5.04,3.21-.29,0-.58,0-.87,0-.56,0-1.13,0-1.69,0-.32,0-.59-.04-.91-.09-.04,0-.09,0-.14,0-.22-.06-.46-.1-.7-.14-.43-.08-.75,.35-.62,.69-.2,0-.39,0-.56,0-.1,0-.2,0-.3,0-.22-.1-.45-.15-.71-.23-.48-.15-.8-.3-1.3-.16-.3,.08-.4,.38-.34,.63-.6-.21-1.06-.67-1.69-.8-.42-.09-.84,.35-.58,.76-.93-.16-2.46-.66-1.41,.4,0,0,0,0,0,0,.43,.33,.8,.7,1.26,.99,.43,.27,.87,.53,1.3,.79,1,.62,6.57,4.09,6.23,4.88-.39-.04-14.44-5.44-20.97-8.19-5.16-2.17-10.47-2.85-15.99-2.12-2.2,.29-2.83,1.76-1.38,3.74,.2,.26,.36,.54,.55,.81,0,.04,.01,.08,.01,.12,0,.59-.39,1.26,.21,1.7,.53,.4,1.08,.83,1.48,1.38,.4,.55,1.08,1.42,.25,1.87-.23,.13-.34,.48-.19,.71,.29,.41,.88,.31,1.1,.71,.35,.64,.53,1.41,.58,2.12,.04,.57,.44,.89,.82,1.26,.3,.29,.51,.5,.48,.94,0,.1-.09,.28-.04,.32-.1,.01-.24,.01-.32,.04-.43,.15-.5,.69-.12,.94,.56,.38,1.44,1.05,1.47,1.83-.16,0-.36,0-.47,.08-.18,.13-.31,.35-.24,.58,.19,.57,.79,1,1.2,1.41,.02,.02,.04,.04,.06,.07,.13,.62,.26,1.23,.37,1.85,.15,.78,.22,1.59,.29,2.47-.64-.44-1.33-.79-1.96-1.32-.76-.64-9.49-8.36-10.75-9.1-3.92-2.32-6.73-2.95-6.88-2.66-.36,.72-.36,1.39,.05,2.1,.32,.55,3.96,5.72,4.3,5.96,.64,.73,2.44,3.91,2.91,4.67,.57,.92,2.44,4.36,3.01,5.1,.1,.12,1.7,3.44,2.4,4.97,.37,.8,.69,1.63,.7,2.88-.31-.13-2.78-1.81-6.35-4.12-.13-.18-.25-.36-.39-.54-.25-.32-.57-.59-.92-.81-.37-.24-.91-.52-1.34-.62-.1-.02-.2-.03-.3-.02-.04,0-.08,0-.11,0-.1-.1-.22-.37-.3-.49-.3-.42-.67-.79-1.09-1.09-.39-.28-.83-.54-1.31-.6-.15-.02-.3-.03-.45,0-.03,0-.13,.06-.23,.11-.13-.08-.25-.15-.38-.23-.04-.05-.08-.09-.08-.09-.19-.2-.41-.35-.6-.55-.31-.33-.5-.73-.85-1.02-.6-.47-1.38-.63-2.14-.54-7.43-4.36-15.46-8.44-19.84-8.55-3.88-.1-4.74,1.1-3.78,4.85,.21,.81,.43,1.62,.65,2.42-.08,.56-.24,1.11-.3,1.67-.05,.45-.08,1.08,.31,1.35,.5,.35,.73,.82,.8,1.03,.36,.99-.26,2.12,.56,2.94,.16,.16,.65,.49,.72,.52,.13,.45,.25,.9,.38,1.34-.04,.16-.09,.29-.13,.3-.27,.09-.43,.35-.36,.64,.12,.51,.62,.93,1.07,1.19,.13,.47,.26,.94,.38,1.41-.06,.19-.16,.37-.32,.51-.19,.18-.2,.55,0,.73,.22,.2,.77,.78,.85,.85,.27,1.31,.27,2.69,.41,4.04-.2,.07-9.95-10.87-10.09-11.05-.31-.38-1.5-2.11-5.32-5.35-3.82-3.24-4.89-4.25-6.87-3.85-.17,.04-1.52,.97-.58,4.24,.16,.57,.12,.95,1.96,5.97,3.34,9.09,6.01,16.94,5.69,17.61,0,0-3.15-.08-5.39,1.4-.02-.17-1.68-3.41-2.19-4.7-.51-1.28-1.43-3.38-1.95-7.52-.07-.52-5.11-35.59-7.69-36.2-.89-.21-1.43,.34-1.92,.93-.23,.18-.41,.4-.55,.65-.34,.39-5.97,9.07-13.74,35.9-.38,1.67-.73,3.35-1.05,5.04-.7,1.61-1.4,3.2-2.1,4.8-.05-.1-.08-.21-.13-.31-.23-.47-.49-.93-.76-1.39-.78-1.48-1.58-2.96-2.32-4.47-.15-.49-.28-.99-.44-1.48-.19-.59-.47-1.15-.68-1.74-.24-.69-.4-1.41-.59-2.11-.33-1.26-.78-2.42-.89-3.73-.05-.58-.24-1.14-.29-1.71-.02-.27,.03-.54,0-.82-.05-.36-.2-.67-.2-1.04,0-1.28-.3-2.49-.49-3.75-.21-1.41-.12-2.86-.12-4.28,0-1.62,0-3.24,0-4.87,0-1.37-.32-2.95,.12-4.27,.06-.17,0-.38-.13-.5-1.13-1.07-2.83,.08-3.69,.91-1.28,1.23-2.48,2.8-3.1,4.47-.36,.95-.72,1.8-1.24,2.68-.49,.83-.7,1.7-1.02,2.58-.54,1.04-1.04,2.1-1.5,3.18-.46,1.08-.88,2.18-1.27,3.29-1.76,3.6-3.27,7.31-4.07,11.32-.02,.08-.05,.15-.1,.24-.14-.72-.28-1.44-.39-2.17,0-3.81-.01-7.48,.02-11.14,0-1.15,.25-2.3,.3-3.45,.01-.28,0-.54-.03-.8,0,0,0,0,0,0,.09-.33,.17-.65,.21-.99,.02-.22,.01-.43,.02-.65,.04-.16,.1-.31,.13-.47,.06-.3,.04-.59,.05-.9,0-.14,0-.27-.01-.4,.16-.68,.25-1.37,.23-2.07-.01-.4-.43-.63-.78-.45-1.73,.92-3.39,1.95-4.98,3.08-.08,.04-.15,.07-.23,.12-1.64,.93-3.21,2.03-4.68,3.24-1.23,.7-2.4,1.48-3.54,2.33-.09,.02-.19,.03-.28,.06-.66,.18-1.26,.57-1.74,1.05-.27,.26-.43,.55-.59,.88-.02,.05-.07,.14-.12,.24-.15,.13-.3,.26-.45,.39-.08-.04-.16-.09-.2-.1-.15-.04-.3-.06-.46-.05-.28,.01-.53,.11-.74,.28-.4,.33-.56,.83-.75,1.3-.12,.29-.27,.58-.43,.85-.04,.06-.07,.11-.11,.17-.1-.03-.2-.05-.3-.06-.58-.07-1.21,.12-1.56,.62-.28,.39-.33,.86-.33,1.33-.09,.02-.18,.04-.26,.07-.17,.07-.33,.15-.46,.29-.15,.16-.17,.33-.27,.51-.14,.24-.46,.39-.69,.51-.65,.37-1.22,.91-1.59,1.56-.2,.34-.34,.72-.47,1.09-.02,.05-.04,.1-.06,.14-.3,.3-.59,.6-.89,.89,0-.54,0-1.08,.03-1.63,.03-.68-.12-1.46,.22-2.06,5.1-9.19,9.04-21.91,9.46-23.06,.26-.7,1.01-2.84,.07-2.48-15.69,6.08-24.48,15.99-26.2,17.33-.84,.66-3.04,1.31-6.52,3.62-.02-.68-.02-1.36-.03-2.05,0-.01,0-.03,.02-.04,.29-.51,.7-.75,1.08-1.17,.24-.27,.17-.78-.23-.86-.59-.11-.71-.71-.51-1.22,.18-.46,.67-.72,.87-1.16,.14-.3,.04-.66-.31-.76-.4-.12-.44-.48-.35-.9,.08-.39,.33-.82,.57-1.13,.13-.16,.23-.43,.08-.63-.26-.35-.4-.59-.35-1.05,.03-.28,.08-.8,.33-.9,.5-.19,.48-.8,0-1,0,0-.16-.56-.18-.65-.05-.34-.02-.56,.25-.76,.24-.18,.38-.58,.1-.81-.64-.54-.08-1.12,.24-1.64,.33-.53-.22-.92-.02-1.43,.15-.38,.65-.72,.53-1.18-.07-.29-.38-.49-.51-.75-.09-.16-.14-.34-.19-.52,.03-.07,.05-.16,.09-.22,.13-.78,.27-1.56,.42-2.34,.09-.44-.35-.8-.76-.58-8.37,4.42-15.53,11-20.71,18.91-.73,.53-1.49,1.08-2.26,1.66-.13-1.23-.03-2.29,.21-3.26,.05-.03,.1-.07,.14-.09,.29-.17,.6-.21,.93-.24,.26-.03,.54-.22,.52-.52,0-.12-.02-.23-.08-.33-.1-.17-.21-.17-.04-.35,.21-.22,.51-.17,.77-.24,.29-.08,.4-.36,.36-.64-.04-.28-.12-.28,.15-.45,.2-.13,.43-.18,.66-.21,.35-.06,.44-.49,.31-.76-.05-.11-.17-.2-.21-.3,.04,.1,.04-.07,.08-.13,.2-.28,.61-.17,.88-.21,.29-.04,.5-.21,.52-.52,.02-.39-.32-.43-.15-.8,.18-.4,.66-.43,.97-.63,.34-.21,.33-.59,.32-.94-.02-.45,0-.9,.2-1.31,.18-.28,.37-.55,.55-.83,.13-.19,.07-.47-.08-.63-.89-.92-2.33-.75-3.47-.55-.64,.11-1.27,.28-1.9,.41-.78,.17-1.55,.26-2.31,.53-5.01,1.38-11.34,4.16-11.34,4.16,.75-1.73,.5-2.43,.8-4.1,.34,.13,.62-.19,.65-.5,.01-.64,.48-.55,.62-.57,.24-.05,.4,.07,.63,.07,.23,0,.44-.16,.5-.38,.18-.69,1.06-.3,1.51-.44,.26-.08,.38-.31,.42-.57,.04-.31,.06-.42,.39-.59,.46-.23,1.02,.15,1.33-.37,.16-.26,.24-.74,.56-.6,.88,.36,.59-1.02,1.42-1.13,4.08-1.64-8.16-3.61-16.89-4.18,.16-.06,.33-.13,.5-.17,.46-.11,.9,.02,1.36-.05,.36-.06,.43-.49,.31-.76-.14-.29,.67-.79,.83-.85,.4-.15,.8-.03,1.19-.15,.24-.07,.35-.26,.38-.5,.06-.52,.43-.85,.95-.97,.37-.09,.87,.05,1.19-.18,.29-.21,.33-.66,.53-.94,.4-.56,.99-.4,1.59-.44,.2-.01,.47-.15,.5-.38,.06-.43,.74-.74,1.1-.83,.37-.09,.76,.02,1.12-.1,.22-.07,.37-.26,.38-.5,0-.19-.08-.35-.03-.54,.04-.17,.17-.29,.2-.46,.01-.05,.01-.11,0-.17,.02-.04,.04-.06,.05-.11,.1-.27-.11-.56-.36-.64-.08-.03-.17-.06-.25-.09-1.37-.85-2.79-1.63-4.31-2.19-1.66-.62-3.31-.86-5.08-.85-1.81,0-3.61-.23-5.42-.23-.88,0-1.78,0-2.67,.06,.38-.37,.76-.74,1.15-1.08,.17-.08,.34-.14,.51-.18,.02,0,.03,0,.05,0,.37-.07,.76-.02,1.14,.2,.37,.21,.74-.07,.78-.45,.04-.39,.02-.7,.46-.84,.3-.09,.64-.01,.89,.18,.27,.21,.61,.2,.81-.1,.19-.29,0-.58,.38-.77,.4-.2,.67,.06,1.03,.17,.25,.08,.58-.09,.64-.36,.06-.32,.09-.47,.44-.62,.34-.15,.55-.05,.87,.07,.25,.09,.58-.11,.64-.36,.16-.71,1.04-.68,1.6-.5,.27,.09,.55-.1,.64-.36,.07-.24,.01-.43,.19-.64,.2-.23,.43-.32,.7-.23,.11,.04,.21,.02,.31-.02,.01,0,.02,0,.04,0,.01,0,.02-.02,.03-.02,0,0,.01,0,.02-.01,.48-.22,.46-.7,.43-1.19,0-.12-.05-.22-.12-.31,.01,0,.02-.02,.03-.03,0,0,0,0,0,0-.02-.02-.05-.03-.08-.06-.06-.15-.19-.26-.38-.28-13.62-5.78-31.75-2.82-31.75-2.82,.34,.01,12.77-4.28,13.02-4.57,.24-.28,.14-.61,.57-.66,.36-.04,.65,.2,1,.03,.33-.16,.4-.47,.8-.53,.37-.06,.75,0,1.07-.23,.18-.14,.22-.3,.46-.36,.18-.05,.44,0,.63-.03,.16-.02,.33-.2,.36-.36,.07-.36,.17-.28,.5-.28,.23,0,.46,0,.64-.17,.17-.15,.19-.38,.42-.47,.26-.11,.55,.02,.82-.09,.24-.1,.29-.33,.47-.49,.19-.17,.41,0,.6-.16,2.32-1.97,1.66-2.84-2.84-4.25-.58-.18-1.35-.08-1.9-.38-.16-.09-.36-.1-.52,0-.5,.31-.8,.42-1.38,.25-.31-.09-.58-.36-.91-.32-.34,.04-.64,.33-.98,.4-.49,.09-.97-.24-1.26-.62-.13-.17-.35-.32-.58-.24-.56,.21-1.04,.64-1.7,.52,.03,0-.17-.05-.34-.11,0-.21-.21-.4-.39-.46-.26-.09-.49,.03-.75,.08-.38,.07-.79,.11-1.17,.13-.47,.02-9.94,.6-10.41,.58l-.8-2.17c3.54-3.54,10.74-5.22,11-5.21,.25,0,.48,.14,.73,.13,.25-.01,.41-.16,.5-.38,.31-.75,.91-1.05,1.68-1.13,.34-.04,.66-.12,.72-.53,.01-.09-.01-.17-.02-.26,0,0,0,0,0,0,0,0,.01,0,.02-.01,.18-.13,.36-.25,.56-.35,.39-.19,.76-.17,1.17-.25,.33-.06,.45-.27,.58-.52,.1-.07,.2-.16,.29-.26,.35-.41,.61-.86,.81-1.36,.06-.14,.11-.3,.17-.47,.18-.34,.31-.71,.33-1.02,0-.09-.01-.18-.05-.27-.27-.14-.54-.27-.81-.38-11.64-3.58-21.98,.51-22.24,.53l-1.48-3.08s5.61-3.48,5.64-3.5c.11-.09,.21-.17,.32-.26,.22-.18,.44-.35,.67-.52,0-.18,.02-.35,.07-.5,.12,0,.24,0,.36,0,.19,0,.4,.02,.59-.02,.03,0,.07,0,.1,0,.16-.04,.3-.15,.42-.26,.15-.14,.27-.3,.41-.45,.05-.05,.09-.12,.11-.19,.15,0,.31,.02,.42,.03,.23,.02,.48,.04,.7-.08,.11-.06,.18-.15,.26-.24,.14-.17-.02-.09,.17-.17,.22-.1,.54,.01,.78-.03,.23-.04,.42-.16,.54-.37,.09-.16,.07-.54,.24-.62,.16-.08,.41,.07,.57,.07,.27,0,.41-.1,.6-.27,.2-.19,.28-.28,.55-.29,.23,0,.43,.03,.65-.07,.23-.11,.36-.31,.39-.56,0-.02,0-.19,0-.25,0,0,0,0,.02,0,.06-.02,.13-.04,.19-.07,.18-.07,.28-.21,.32-.36,.07-.06,.12-.12,.14-.2,.31-.15,.56-.39,.5-.77-.12-.73-1.41-1-2.01-1.1-.1-.02-.18,0-.26,.02-.03,0-.06-.02-.1-.03-.05,0-.1,0-.14,0-1.97-.26-4.02-.44-5.97-.17-2.1,.29-9.1,2.5-8.89,2.32,.17-.14,2.58-4.26,2.46-4.43-.04-.06-.08-.12-.12-.17,0-.02,0-.02,0-.05,.03-.11,.04-.19,.1-.3,.16-.29,.36-.43,.65-.58,.48-.26,.22-.93-.26-.96,.21,.02,.1,.1,.23-.1,.05-.09,.14-.16,.22-.23,.16-.12,.33-.18,.52-.23,.47-.13,.51-.89,0-1,.13,.03,.04-.1,.06-.25,.02-.1,.05-.17,.11-.25,.13-.17,.34-.34,.57-.33,.32,.01,.6-.34,.5-.65-.05-.16-.33-.45-.25-.63,.06-.14,.32-.07,.48-.2,.22-.17,.23-.39,.2-.64-.01-.14-.02-.27-.03-.41,0-.09-.01-.18-.03-.27,0-.04,0-.05-.02-.06,.04-.12,.05-.23,.01-.33,.08-.08,.12-.18,.11-.31,.04-.22-.02-.44-.17-.59-.04-.12-.1-.23-.23-.33-.22-.18-.53-.23-.8-.17-.35,.08-.57,.44-.91,.49-.17,.02-.32-.02-.49,.05-.17,.07-.21,.17-.34,.27-.28,.21-.64,.04-.97,.16-.31,.12-.48,.45-.77,.62-.31,.17-.67,.04-.97,.25-.32,.23-.49,.77-.96,.64-.22-.06-.47,.04-.58,.24-.11,.19-.31,.5-.54,.56-.19,.06-.39-.05-.59,.03-.42,.15-.47,.72-.89,.93-.22,.12-.45,0-.68,.1-.24,.1-.33,.29-.43,.5-.12,.24-.23,.53-.41,.73-.03,.03-.06,.06-.09,.09-.61,.33-1.41,.33-2.18,.39-.01,0-.02-.01-.03-.02-.19-.1-.39-.2-.58-.29-.04-.25-.08-.5-.12-.75,0-.41,0-.82-.02-1.23,.03-.2,.07-.39,.11-.58,.13-.36,.26-.73,.35-1.11,.06-.26,.09-.52,.12-.79,.1-.25,.33-.5,.51-.63,.31-.23,.66-.31,1.01-.43,.32-.11,.48-.45,.31-.76-.23-.42,.65-.64,.89-.64,.46,0,.59-.45,.42-.76,.08-.05,.14-.1,.24-.13,.19-.07,.38-.08,.57-.16,.24-.1,.38-.33,.36-.56,.02,0,.83-.24,1.02-.31,.21-.07,.38-.23,.45-.45,.02-.06,.32-.38,.39-.41,.21-.11,1.05-1.57,1.1-1.6,.42-.3,.27-.93-.26-.96-.7-.04-1.4-.02-2.1-.04-.68-.02-1.35-.12-2.03-.11-1.38,.02-2.71,.38-4.06,.62-1.2,.21-2.88,.6-3.99-.11-.49-.31-.82-.78-1.2-1.2-.01-.01-.03-.02-.04-.04l-.02-.05c-.05-.11-.09-.22-.14-.34-.13-.3-.28-.58-.48-.84-1.31-3.4-2.08-6.85-1.84-10.62,.12-1.95-1.74-8.75-2.43-9.93-1.95-3.32-3.98-6.61-6.25-9.72-.7-.96-2.21-1.36-3.4-1.92-4.62-2.18-7.34-5.85-8.18-11.33-2.99-4.41-6.33-8.58-9.64-12.76-.49-.62-1.24-1.05-1.84-1.59-2.45-2.17-4.97-4.27-7.31-6.55-2.29-2.22-4.64-4.44-6.53-6.99-1.88-2.53-4.47-3.99-7.01-5.53-.25-.05-.49-.1-.71-.14-1.14-.24-4.4-1.21-4.91-1.38-1.08-.36-2.2-.64-3.33-.79-1.19-.16-4.16-.26-4.46-.29-1.53-.4-3.07-.78-4.59-1.2-1.57-.43-5.84-2.54-5.83-2.61,.69,0,18.74,.28,19.52-.02,1.01-.39,11.69-2.88,12.22-3.07,2.02-.72,3.92-1.72,5.58-3.09,.85-.7,1.7-1.38,2.49-2.12,.79-.34,1.59-.68,2.39-.99,3.56-3.14,6.53-7.06,9.8-10.54,2.71-6.32,5.97-12.45,8.27-18.93,1.47-4.14,2.4-8.58,2.79-12.95,.57-6.47,2.81-13.88,3.06-13.95,13.66-3.38,17.14-8.52,17.25-9.11,.04-.25-.94-1.34-1.3-1.46-.53-.17-1.07-.3-1.59-.48-.13-.05-.26-.11-.38-.17,.16-.25,.26-.5,.06-.82-.21-.35-.78-.53-1.13-.67-.34-.13-.7-.16-1.03-.3-.05-.02-.14-.06-.25-.11,0,0,0,0,0,0,.23-.16,.33-.44,.19-.71-.23-.41-.83-.47-1.24-.57-.32-.08-.65-.14-.96-.24-.14-.04-.37-.11-.6-.19,.25-.25,.41-.54,.09-.9-.18-.2-.42-.2-.66-.24-.2-.03-.4-.09-.59-.15-.15-.04-.29-.11-.42-.19,.08-.09,.14-.2,.15-.37,0-.26-.15-.48-.38-.6-.33-.17-.76-.15-1.11-.26-.28-.09-.56-.17-.84-.25-.11-.1-1.31-1.26-1.31-1.26,0,0,1.69-5.49,2.25-5.41,2.63,.39,17.77-1.79,20.19-7.2,.36-.81-.69-1.15-1.45-1.09-.41,.03-.79,.16-1.19,.19-.12,0-.24,.01-.36,.01-.01,0-.02,0-.03,0-.11,0-.21-.02-.32-.03,0,0,0-.02,.01-.02,.11-.38-.1-.77-.42-.97-.36-.22-.81-.14-1.21-.14-.29,0-.58,0-.87,0-.05,0-.1,0-.16,.02,.02-.08,.03-.17,0-.28-.07-.31-.36-.53-.67-.53-.34,0-.64,.22-.98,.26-.22-.07-.44-.12-.69-.15,.11-.29,.06-.61-.33-.85-.38-.24-.85-.22-1.33-.18,.18-.3,.21-.63-.16-.95-.26-.23-.6-.18-.91-.09-.22,.07-.45,.17-.66,.26-.12,.05-.28,.16-.44,.23,0-.07,0-.13,0-.17-.06-.23-.18-.44-.31-.63-.28-.38-.63-.59-1.03-.84-.38-.24-.72-.39-1.18-.37-.05,0-.09,.02-.14,.03-.38-.36-.76-.73-1.15-1.08-.04-.03-.08-.07-.12-.1,.02-.11,.05-.22,.08-.33,.13-1.43,.12-2.86,.18-4.29,.74,0,1.48,0,2.21,0,2.22-.03,4.4-.45,6.58-.87,3.1-.6,19-11.28,10.13-10.1-.67,.09-1.35-.1-2.05-.04-.18-.1-.36-.13-.57-.13-.11,0-.47-.08-.34,.06-.05-.06-.06-.24-.11-.32-.27-.45-.72-.33-1.13-.16-.23,.1-.45,.2-.69,.25-.05,.01-.09,.02-.14,.03,0-.03,0-.08,0-.13-.02-.3-.22-.48-.52-.52-.58-.06-1,.5-1.5,.73,.13-.18,.22-.37,.1-.66-.23-.57-.81-.42-1.23-.17-.22,.13-.44,.23-.64,.39-.18,.14-.33,.27-.55,.35-.03,.01-.06,0-.09,.02,.07-.12,.14-.24,.16-.29,.11-.27,.08-.47-.03-.73-.07-.15-.28-.27-.45-.26-.39,.05-.63,.28-.99,.39-.24,.08-.6,.1-.93,.1,.04-.17,.05-.34,0-.55-.07-.27-.37-.44-.64-.36-.3,.08-.64,.39-.98,.52-.06-.03-.12-.05-.17-.08,0-.33-.08-.64-.36-.91-.16-.15-.4-.19-.6-.09-.16,.04-.29,.1-.42,.17-.11-.09-.22-.18-.34-.26-.63-.49-1.23-.95-1.73-1.58-.45-.56-.9-1.24-1.43-1.8,.03-.29,.04-.59,.04-.88,6.09-.78,12.04-2.52,17.56-5.21,1.57-.76,3.08-1.63,4.57-2.54,4.8-3.54-2.26-2.68-2.94-2.9-.25-.08-.7-.29-.89-.49-.09-.09-.1-.29-.18-.45-.08-.15-.27-.27-.45-.26-.4,.04-.78,.05-1.19,.02-.26-.02-.54-.03-.77-.14-.02-.01-.04-.03-.06-.04,.26-.34-.1-.88-.57-.8-.12,.02-.22,.06-.3,.11-.34,.1-.79,.07-1.12,.07-.21,0-.41,0-.61-.06-.29-.09-.27-.11-.18-.33,.07-.19-.05-.5-.24-.58-.61-.27-1.45-.12-2.11-.17-.41-.03-.83-.01-1.24-.07-.1-.01-.28-.04-.47-.08-.09-.16-.16-.33-.16-.53,0-.53-8.32-6.58-7.94-7,.06-.06,.82-2.72,1.19-5.28,.03-.2,6.31-2.13,6.31-2.13,6.99-2.13,6.66-2.68,10.24-3.82,10.68-3.38,18.03-12.53,13.53-12.24-.57,.04-1.11-.05-1.66-.08-.16,0-.34-.06-.52-.13-.11-.14-.29-.2-.47-.21-.29-.15-.56-.31-.78-.44-.37-.23-.76-.81-1.23-.81-.17,0-.3,.11-.46,.13-.41,.06-.9-.08-1.3-.16-.37-.08-.74-.16-1.1-.29,0,0-.43-.14-.47-.2-.07-.12,0-.28,.02-.45,.05-.5-.17-.84-.7-.84-.83,0-1.57-.04-2.38-.27-.35-.1-.7-.22-1.02-.41-.42-.24-.26-.38-.27-.8,0-.26-.23-.54-.52-.52-.07,0-.14,.02-.21,.02-.08,0-.11,0-.14,.01-.31,0-.61-.01-.91-.04-.19-.02-.37-.03-.56-.08-.03,0-.04,0-.06,.02,0,0,0,0,0-.02,.06-.25,.13-.35,.1-.62-.04-.29-.39-.41-.64-.36-.17,.04-.3,.14-.46,.2-.25,.09-.49,.09-.75,.08-.33,0-1.25,.02-.96-.48,.22-.36-.15-.92-.58-.76-.59,.22-2.58,.15-2.68-.69-.03-.25-.14-.41-.38-.5-.28-.1-.59-.05-.88-.07-.04,0-.08,0-.11-.01-.07-.05-.15-.1-.22-.15-.23-.18-.45-.37-.69-.53-.54-.37-1.09-.66-1.66-.97-.51-.28-1.1-.52-1.55-.89-.3-.25-.61-.49-.91-.74l.42-3.95c.58,0,1.16-.03,1.74-.11,1.45-.18,2.94-.42,4.37-.73,.68-.15,1.34-.36,1.99-.6,1.47-.25,2.5-.63,3.55-.74,1.83-.19,3.72-.36,5.55-.76,1.02-.09,1.95-.37,2.83-.85,4.63-1.49,2.41-2.36,2.33-2.38-1.19-.5-2.34-1.05-3.46-1.64,.06-.04,.11-.07,.16-.13,.35-.42-.1-1.16-.63-.81-.06,.04-1.11-.21-1.21-.24-.61-.17-1.03-.39-1.52-.78-.02-.09-.02-.19,0-.3,.04-.28,.11-.53-.06-.78-.13-.18-1.33-.47-1.76-.71-.22-.12-.87-.36-.99-.58-.11-.21,.16-.56,.23-.75,.12-.34-.19-.63-.5-.65-.66-.06-1.21-.1-1.83-.4-.47-.22-1.32-.64-.99-1.26,.19-.37-.05-.74-.45-.78-.69-.07-2.59-.85-2.89-.99-.25-.24-.5-.46-.75-.7,2.24-.23,4.48-.38,6.72-.51,.28,.04,1.25,.43,1.53,.31,.25-.11,.36-.32,.63-.4,.1-.03,.21-.04,.32-.05,0,0,.74,.04,1.03,.1,.36,.07,.72,.16,1.05,.34,.3,.16,.56,.39,.89,.49,.34,.1,.63-.17,.65-.5,.02-.29,.21-.48,.48-.6,0,0,.01,0,.02,0,.05,.01,1.07,.29,1.54,.4,.58,.14,.9,.28,1.32,.69,.24,.23,.52,.43,.87,.42,.55,0,1.01-1.13,1.11-1.21,.36-.27,.82-.23,1.25-.22,.69,.22,1.37,.5,2.07,.69,.53,.14,1.29,.22,1.62-.29,.13-.03,.6-.86,.95-1.08,.18-.12,.37-.18,.55-.27,5.31-.61,14.31-3.02,15.7-3.65,1.39-.63-5.8-5.82-9.28-7.79-8.11-4.59-24.5-15.02-25.72-15.68,0,0,.13-1.49,.17-1.51,14.59,1.1,29.13,2.68,43.87-1.47,.49-.07,3.77-.8,3.08-1.53-3.34-3.54-.51-2.85-4-5.68-.15-.31-.15-.57-.15-.91-.01-.52-.28-.72-.74-.89-.65-.23-2.23-1.23-2.42-1.39,0-.02,0-.05,0-.07,0-.12,.03-.25,.04-.37,0-.03,0-.05,0-.08,0,0,0-.02,0-.04,.02-.08,.03-.16,.04-.23,0-.02,0-.03,0-.05,.35-.18,.38-.76-.09-.95-.43-.09-2.18-.91-2.6-1.16-.38-.23-.87-.53-1.1-.92-.25-.43,.09-.64,.28-.93,.13-.2,.07-.46-.08-.63-.42-.49-1.42-.54-1.99-.7-.47-.13-.85-.31-1.17-.69-.38-.45-.26-.85-.23-1.4,0-.03-.01-.05-.01-.08,.02-.07,.02-.15-.01-.23-.36-.88-1.53-.7-2.39-.65-.53-.19-1.03-.46-1.55-.66-.34-.13-.62-.31-.89-.51,.03-.26,.48-1.35,.68-1.69,.11-.2,.08-.46-.08-.63-.41-.4-1.07-.52-1.61-.63-.48-.1-.99-.13-1.46-.29-.43-.15-.73-.43-1.05-.74-.29-.28-.77-.66-.8-1.1-.02-.35,.18-.52-.12-.86-.19-.22-.45-.26-.72-.3-.46-.08-2.35-.61-2.83-.78-.46-.16-.64-.31-.56-.8,.12-.71-.15-1.02-.83-1.24-1.11-.37-2.13-.95-3.2-1.4-1.29-1.07-2.62-2.1-3.95-3.12,.15-1.33,.04-2.67-.29-3.95,6.88,3.21,14.71,3.72,22.22,4.04,2.38,.1,4.84,.27,7.05-.8,.24-.11,.34-.49,.19-.71-.3-.42-.69-.93-1.11-1.48-.01-.05-.03-.1-.06-.15-.25-.38-.5-.78-.74-1.19-.5-1.05-.86-2.17-1.28-3.23-.17-.42-.47-.84-.9-1.01-.13-.16-.31-.27-.5-.39-.46-.28-.89-.47-1.26-.89-.13-.15-.24-.31-.35-.48-.13-.53-.23-1.16-.43-1.71,.02-.2,.04-.4,.02-.6-.02-.41-.25-.55-.56-.74-.74-.44-2.15-1.13-2.14-2.14,0-.43-2.9-3.92-3.13-4.32-.29-.52-5.34-8.22-5.38-8.73-.02-.35,.19-1.36,.28-1.51,4.1,1.04,7.54,4.02,11.11,6.01,.27,.15,.56,.29,.84,.41,45.74,19.93,57.21,35.53,56.75,27.97,.76-4.49-1.86-18.11-2.05-18.47-.25-.45-9.55-52.74-9.55-52.74,0,0,3.66,5.37,12.09,18.62,.26,.41,14.64,26.41,16.09,28.11,9.55,11.11,17.55,24.45,21.76,27.05,3.28,2.03,2.77-5.54,5.62-10.6,2.27-4.03,3.56-8.41,4.68-12.81,.03-.02,.05-.05,.07-.08,.06-.04,2.43-8.87,2.51-9.71,.07-.73,5.14-22.9,5.12-23.39-.02-.47,8.17-25.94,8.26-26.17,.56-1.45,1.13-2.89,1.69-4.34,.9,7.37,4.55,10.72,7.83,22.21,0,0,.01,0,.02,.01,2.73,9.92,4.94,22.55,9.07,32.89,.12,.5,.25,.99,.37,1.49,0,.65,2.86,9.98,2.96,10.11,1.66,4.52,7.43,14.03,8.01,14.92,2.63,1.58,6.07-5.96,10.15-9.43,4.09-3.47,32.63-45.34,34.14-46.94,.04,.13-6.98,38.73-4.31,56.02,6.25-2.54,20.94-10.11,26.1-14.36,3.34-2.74,19.75-10.38,23.82-17.05,0,0-15.96,32.02-16.93,37.28,2.18,2.75,23.55-3.53,26.61-4.79,6.14-2.53,19.28-6.78,19.28-6.78,0,0-29.62,26.25-32.8,32.82,5,1.26,9.72,2.47,14.53,2.76,.48,.28,1.02,.48,1.52,.66,.46,.17,.95,.23,1.41,.37,.44,.14,.82,.4,1.28,.46,.85,.11,1.74-.25,2.52-.55,.65-.24,1.34-.55,2.04-.72,.95-.02,1.85-.1,1.86-.1,.2-.07,2.21,.49,2.79,.78,.77,.39,1.4,.37,2.2,.04,.83-.34,1.47-.73,2.17-1.28,.46-.35,.76-.38,1.29-.16,.19,.08,.38,.19,.58,.28,0,0,.01,.01,.02,.02,.42,.37,.95,.7,1.54,.6,.55-.1,8.89,1.49,8.82,1.7-1.2,.84-2.58,1.75-4.03,2.67-.62,.06-1.21,.2-1.85,.32-.46,.08-.88,.19-1.33,.32-.38,.11-.87,.17-1.19,.41-.31,.23-.5,.8-.35,1.21-.32,.01-.64,0-.96,.03-.88,.08-2.14,.13-2.44,1.16-.01,.04-.01,.08-.01,.12-.08,.19-.14,.37-.2,.54,0,0,0,0-.01,0-.63,0-1.28-.06-1.9,.1-.32,.09-.58,.24-.8,.43-.03,.02-.05,.04-.08,.06,0,0-.01,0-.02,.02-.2,.16-.37,.37-.5,.57-.09,.14-.15,.3-.27,.43-.11,.12-.24,.22-.35,.35-.23,.28-.45,.57-.65,.88-.1,.15-.19,.31-.3,.45-.11,.14-.26,.26-.38,.4-.01,.02-.03,.03-.04,.05-1.08,.62-1.94,1.11-1.97,1.13-.04,.02-9.25,6.85-12.15,10.28,5.27,5.48,27.42,5.7,38.94,3.68,.66,3.45,.86,5.32,.86,5.32,0,0-27.61,14.84-24.57,17.34,.27,.22,2.26,.31,5.01,.41,.04,.1,.06,.2,.09,.19-.07,.07-.17,.14-.24,.21-.24,.29-.12,.91,.35,.85,.35-.04,.64-.23,.98-.32,.46-.12,.93-.23,1.38-.34,.5-.13,1.07-.05,1.59-.05,.23,0,.44,.02,.64,.04-.2,.36,.12,.85,.56,.73,.39-.11,.8-.12,1.2-.23,.46-.13,.86-.21,1.33-.23,.46-.02,.91,.03,1.36,.09-.19,.37,.13,.77,.57,.71,.22-.03,.38-.15,.57-.24,.31-.15,.64-.24,.99-.27,.28-.02,.55,0,.82,.08,.12,.04,.23,.1,.35,.15-.29,.39-.53,.86-.31,1.26,.19,.34,.54,.39,.89,.33,.35-.06,.72-.11,1.04-.26,.28-.12,.52-.21,.82-.25,.4-.05,.73-.15,1.09-.33,.32-.15,.68-.3,1.04-.41,1.46,.43,2.54,.96,2.99,1.66,.02,.01,.21,3.26,.18,3.77-.05,.02-.1,.04-.15,.06-.56,.23-1.12,.45-1.68,.7-.26,.12-.52,.23-.76,.4-.19,.13-.37,.29-.55,.43-.63-.07-1.25-.09-1.46,.03-.19,.11-.36,.24-.53,.38-2.84,.02-3.55-.34-3.92,.06-.27,.29-.48,.65-.71,.99l-9.65,3.11c2.85,4.11,5.37,8.51,8.66,12.23,3.24,3.67,7.25,6.64,10.96,9.95-.43,.68-.9,1.27-1.39,1.82-.42,.08-.81,.09-1.24-.1-.42-.19-.77,1.19-.68,1.46,.02,.07,.05,.13,.08,.2-.13,0-.27,0-.4-.01-.15,0-1.32-.07-1.39,.08-.18,.34-.06,.64,.17,.9,0,.05,0,.11,0,.17-.13,.04-.26,.07-.39,.09-1.58,.24-2.01-.19-1.72,.79,.03,.09,.1,.16,.15,.23-1.28,.55-2.64,1.01-4.1,1.42,1.57,5.36,8.1,5.21,8.11,5.74l-1.9,5.5s-1.94-.39-2.46-.1c-.11,.02-.22,.04-.33,.07-.27,.07-.54,.14-.82,.19-.28,.05-.55,.03-.83,.09-.37,.07-.51,.61-.23,.86,.05,.05,.05,.09,.03,.13-.17,.08-.33,.16-.5,.25-.14,.04-.27,.06-.3,.07-.22,.05-.45,.13-.66,.06-.2-.06-.48-.22-.67-.31-.22-.1-.44-.05-.58,.08-.12,.03-.24,.08-.31,.22-.05,.11-.12,.37-.22,.44-.12,.09-.19-.02-.33-.1-.33-.17-.59-.25-.96-.19-.22,.04-.33,.25-.37,.45-.02,0-.05,0-.08,.02-.19,.06-.29,.17-.43,.29-.06,.05-.09,.11-.09,.18-.1-.01-.19,0-.29,.01-.11,.02-.21,.06-.31,.11-.41,0-.83,0-1.24,0-.04,0-2.39-.19-2.43-.18,.43,8.14,11.75,7.77,11.75,7.77l-1.42,5.12s-3.06,1.44-6.39,1.17c-.35-.03-.72,1.2-.72,1.54-.1,.03-1.1-1.07-1.23-.96-.87,.7-.24,1.61-1.91,.67-.29-.16-.56,.35-.5,.65-.07-.02-2.3-1.2-2.07,.21-.14-.01-2.4,.84-4.06-.2-.02,0-.03,0-.05,0-.22,0-2.05,1.81,2.67,4.94,.42,.28,.88,.53,1.3,.8,.41,.27,3.64,1.86,10.42,3.41,0,0-.28,1.47-2.52,5.12-.03,.02-.05,.05-.09,.07-.55,.3-1.04,.53-1.42,1.04-.19,.25-.04,.54,.19,.68-.1,.1-.2,.2-.26,.28-.22,.28-.45,.5-.74,.71-.25,.18-.5,.44-.77,.57-.22,.11-.42,.14-.62,.31-.28,.24-.14,.63,.1,.81,.12,.09,.25,.13,.39,.16-.16,.09-.31,.18-.33,.2-.32,.23-.61,.62-.97,.78-.35,.14-.72,.01-1.05,.26-.31,.23-.35,.67,0,.89,0,0,.03,.02,.04,.02-.68,.49-1.29,.9-1.41,.9-.97,0-1.03,.43-1.04,.73-.19,5.58,14.6,4.29,14.96,4.64,.42,1.35,.89,2.68,1.45,3.97-.1,.16-.2,.33-.3,.49-.39,.68-.78,1.35-1.17,2.02-.19,.12-.39,.23-.47,.28-.33,.19-.66,.41-1,.56-.52,.24-.63,.58-.41,.99,.01,1.09-1.89,1.52-2.55,2.12-.22,.2-.17,.52,0,.73,.11,.14,.29,.18,.4,.3,.23,.25-.04,1.48-1.5,1.3-1.07-.13,.16,1.63-1.19,1.89-1.34,.26-.42,1.23-.42,1.23,0,0-.08,.09-.13,.12-6.44,4.1-4.78,3.9-.34,5.24,10.8,3.28,17.61,2.18,17.61,2.18,.34,1.25,.81,1.58,.72,3.8-.22,5.49,.2,10.64,1.72,15.84,2.78,9.51,7.53,18.02,12.71,26.37,2.66,4.29,4.98,8.81,7.26,13.32,3.63,7.18,9.59,11.78,16.59,15.26,4.26,2.12,29.36,1.3,29.38,1.58-5.41,1.09-14.47,5.86-19.93,6.54Z"/>
  </g>
</svg>